# xmcd
#
# Track frame offsets:
#	150
#	17288
#	37008
#	55232
#	70775
#	89106
#	109212
#	125498
#	150765
#	170338
#
# Disc length: 3016 seconds
#
# Revision: 1
# Processed by: cddbd v1.4PL0 Copyright (c) Steve Scherf et al.
# Submitted via: audiograbber 1.80
#
DISCID=790bc60a
DTITLE=Dale Carey - Across The River
DYEAR=1900
DGENRE=
TTITLE0=Across The River
TTITLE1=Sisterwind
TTITLE2=When I'm Gone
TTITLE3=Hitch'n
TTITLE4=Mae
TTITLE5=Tomorrow
TTITLE6=On My Way
TTITLE7=Leaving The Land Of Ellen
TTITLE8=By The Light Of The Moon
TTITLE9=The Fool
EXTD=
EXTT0=
EXTT1=
EXTT2=
EXTT3=
EXTT4=
EXTT5=
EXTT6=
EXTT7=
EXTT8=
EXTT9=
PLAYORDER=
